<?xml version="1.0" encoding="utf-8"?>
<!DOCTYPE svg PUBLIC "-//W3C//DTD SVG 1.0//EN" "http://www.w3.org/TR/2001/REC-SVG-20010904/DTD/svg10.dtd">
<svg version="1.0" xmlns="http://www.w3.org/2000/svg" width="486px" height="113px" viewBox="0 0 486 113" preserveAspectRatio="xMidYMid meet">
 <g fill="#ffffff">
  <path d="M352.1 100.2 c-0.6 -1.1 -1.5 -10.5 -2.1 -20.8 -0.5 -10.4 -1.4 -23.8 -2 -29.9 -0.6 -6 -1.5 -16.4 -1.9 -23 -0.8 -11.1 -0.7 -12.1 1.2 -14.7 2.5 -3.4 4.6 -4.2 6.6 -2.5 0.9 0.8 3.7 2.1 6.2 3.1 4.7 1.7 17.7 12 21.7 17.1 3.6 4.6 4.5 9.8 2.8 15.8 -1.3 4.4 -3 6.6 -11.3 14.8 -5.4 5.2 -11 10.3 -12.4 11.2 -4.4 2.6 -5.9 7.3 -5.9 18.4 0 10.5 -1 14.1 -2.9 10.5z m16.5 -47.4 c3.6 -3.4 6.7 -7.2 7 -8.4 0.6 -2.3 -1.3 -6.7 -5 -11.8 -3 -4 -12.7 -10.9 -13.9 -9.7 -0.6 0.6 -0.1 6.4 1.2 15.4 1.1 8 2.1 15.9 2.1 17.6 0 1.7 0.5 3.1 1.1 3.1 0.6 0 4 -2.8 7.5 -6.2z"/>
  <path d="M339.6 92.8 c-0.3 -1.8 -0.8 -7.1 -1.1 -11.8 -0.4 -5.6 -1.2 -9.6 -2.5 -11.7 -2.8 -4.7 -29.3 -38.2 -33.4 -42.2 l-3.4 -3.3 -0.8 4.7 c-0.3 2.6 -0.5 13 -0.2 23.1 0.4 14 0.2 18.9 -0.8 20.2 -1.2 1.6 -1.4 1.6 -2.8 -0.3 -3.7 -4.8 -4.3 -10.1 -3.9 -36 0.5 -31.4 0.4 -31.4 13.2 -17.9 4.4 4.7 12.1 13.8 17.1 20.3 8.8 11.5 11.7 14.8 12.4 14 0.2 -0.2 0 -6.8 -0.5 -14.7 -0.6 -7.9 -0.9 -17.8 -0.7 -22 0.3 -7.3 0.4 -7.7 2.7 -8 3.3 -0.5 4.1 1.2 4.1 9.3 0 10.2 2.8 41.3 4.1 46.5 0.8 3.2 0.9 6 0.1 9.5 -0.5 2.8 -0.8 7.6 -0.5 10.7 0.9 9.6 -1.8 17.9 -3.1 9.6z"/>
  <path d="M400.7 81.4 c-0.4 -0.4 -0.7 -1.6 -0.7 -2.6 0 -1.1 -0.7 -3.3 -1.6 -5.1 -1 -1.7 -1.8 -4.7 -1.9 -6.7 -0.9 -13.4 -2.5 -18.8 -6.7 -21.8 -2.2 -1.6 -2.3 -4 -0.2 -6.3 1.5 -1.7 1.5 -2.5 -0.5 -11.4 -3 -12.7 -2.7 -14.7 2.2 -15.8 2.7 -0.7 4.6 -0.6 6.1 0.2 3 1.6 13.7 -0.1 21.6 -3.5 4.9 -2.2 6.3 -2.4 7.5 -1.4 2.4 2 1.8 4.8 -2 9.4 -1.9 2.4 -3.5 5 -3.5 5.9 0 2.2 -1.1 4.7 -2 4.7 -0.5 0 -1.1 -1.4 -1.5 -3 -0.4 -1.6 -0.9 -3 -1.2 -3 -0.3 0 -2.7 1.2 -5.4 2.7 -4.6 2.4 -4.9 2.9 -4.9 6.5 0 3.3 0.3 3.8 2.4 3.8 1.2 0 3.8 -0.5 5.5 -1.1 2.9 -1 3.5 -0.9 5.4 0.9 l2 2.1 -2.4 3.5 c-1.3 2 -3.3 3.6 -4.4 3.7 -1.1 0.1 -4 0.2 -6.5 0.3 l-4.5 0.1 0.3 8 c0.2 4.4 0.8 8.4 1.2 8.9 0.5 0.5 5.3 0.1 11.3 -0.8 5.7 -1 12.1 -1.6 14.3 -1.4 3.4 0.3 3.9 0.6 4.2 3 0.3 2.5 -0.1 2.8 -6.1 4.7 -3.5 1.1 -8.9 2.4 -12 3 -3 0.5 -7.2 1.8 -9.4 2.8 -3.2 1.5 -3.9 2.4 -4.1 5.3 -0.4 3.7 -1.4 5.5 -2.5 4.4z"/>
  <path d="M230.6 80.3 c-0.3 -0.3 -0.6 -1.8 -0.6 -3.2 0 -1.4 -1.5 -5 -3.4 -8.1 -4.1 -6.7 -7.2 -15.1 -6.3 -17.3 0.4 -1 1.7 -1.7 3.2 -1.7 1.9 0 2.8 0.8 4 3.8 1.8 4.1 6.2 9.2 8 9.2 2 0 4.5 -3.5 4.5 -6.2 0 -2.1 -1 -3.1 -5.2 -5.3 -13.7 -7 -19.6 -19.4 -15.6 -32.6 1.4 -5 7.7 -11.9 10.8 -11.9 6.2 0 13.7 8.6 12.6 14.3 -0.4 1.8 -1.1 6.6 -1.6 10.7 l-0.9 7.5 3.5 3.6 c3.5 3.6 6.1 10 4.8 12.1 -0.4 0.7 -0.3 0.8 0.4 0.4 0.7 -0.4 1.2 -1.2 1.2 -1.7 0 -0.6 2.3 -6.7 5.1 -13.7 3.1 -7.7 5.1 -14.2 5 -16.6 0 -5 3.8 -8.8 8.3 -8.4 2.8 0.3 3.1 0.7 3.4 3.8 0.4 5.3 9.3 23.8 11.6 24.2 3 0.5 4.2 3.3 2.7 6.1 -1.2 2.2 -1 3.2 1.3 8.2 1.4 3.2 2.6 6.5 2.6 7.4 0 1.9 -3.6 6.8 -4.4 6 -0.3 -0.3 -2.5 -5 -4.9 -10.5 -5 -11.2 -5.6 -11.6 -13.6 -8.9 -3.3 1.1 -5.1 2.3 -5.4 3.7 -0.4 1.3 -1.1 1.9 -2.1 1.5 -2 -0.8 -4.5 5.9 -5.3 13.9 -0.8 8.6 -2.9 8.7 -3.6 0.2 -0.3 -3.5 -0.9 -8 -1.2 -10.1 l-0.7 -3.8 -2 3.8 c-2.6 4.9 -5.4 8 -10 10.9 -3 1.9 -3.8 3.1 -3.8 5.4 0 2.9 -1.2 4.5 -2.4 3.3z m40.2 -38.8 c0.2 -0.2 -0.1 -1.3 -0.8 -2.4 -1.2 -2.4 -3 -2.8 -3 -0.7 0 0.8 -0.8 2.2 -1.7 3.2 -1.6 1.5 -1.5 1.6 1.8 0.9 1.9 -0.4 3.5 -0.9 3.7 -1z m-33.8 -8.2 c0 -4.9 -2.8 -12.4 -5.1 -13.8 -1.7 -1.1 -4.9 3 -4.9 6.4 0 3 2.9 7.7 6.2 10.3 3.4 2.6 3.8 2.3 3.8 -2.9z"/>
  <path d="M170 77.1 c0 -1.6 -0.5 -4.2 -1 -5.7 -1 -2.6 -1.1 -2.6 -9.3 -2.2 -5.1 0.3 -9.7 1.1 -12 2.3 l-3.9 1.8 -2.4 -2.9 -2.5 -2.9 0.6 -18 c0.3 -9.9 0.2 -21.1 -0.3 -24.8 -1.2 -9.1 -0.3 -14.1 2.4 -14.5 4.5 -0.6 4.9 1.5 4.9 27.4 l0 24.2 2.8 0.5 c1.5 0.2 7.5 0 13.4 -0.4 7.2 -0.5 11.2 -0.4 12 0.3 1.6 1.3 1.7 4.3 0.1 7.1 -0.7 1.2 -1.4 4 -1.7 6.1 -0.7 4.8 -3.1 6.2 -3.1 1.7z"/>
  <path d="M178.6 75.4 c-0.3 -0.9 -0.6 -3.5 -0.6 -5.9 0 -2.4 -0.5 -5.5 -1.1 -6.9 -1.5 -3.2 -0.3 -7.7 6.3 -23.9 2.9 -7.1 4.8 -13.4 4.8 -15.7 0 -3 0.6 -4.3 2.6 -5.9 3.8 -3 8 -2.8 8.8 0.4 0.4 1.4 0.4 3 0.1 3.5 -0.3 0.4 1.8 5.5 4.5 11.2 3.7 7.5 5.7 10.4 7.3 10.8 2.5 0.6 3.5 4.3 1.8 6.4 -0.8 1 -0.4 3.1 1.8 8.1 1.5 3.7 2.6 7.5 2.4 8.4 -0.7 2.5 -3.1 5.4 -4.1 4.8 -0.4 -0.3 -2.6 -4.6 -4.7 -9.4 -4.6 -10.6 -5.1 -11.3 -7.9 -11.3 -4 0 -10.1 2.7 -11.1 4.9 -0.6 1.3 -1.7 2 -2.6 1.8 -1.8 -0.5 -4.9 6.8 -4.9 11.4 0 3.9 -1.1 8.9 -2 8.9 -0.4 0 -1.1 -0.7 -1.4 -1.6z m20.1 -33.8 c0.2 -0.1 -0.4 -1.2 -1.3 -2.4 -1.7 -2.5 -3.4 -2.1 -3.4 0.8 0 1 -0.8 2.1 -1.7 2.4 -1 0.2 0 0.2 2.2 -0.1 2.2 -0.3 4.1 -0.6 4.2 -0.7z"/>
  <path d="M115.4 72.3 c-0.4 -2.1 -1 -4.2 -1.4 -4.8 -0.4 -0.5 -1.7 -5.5 -2.9 -11 -1.2 -5.4 -2.7 -10.3 -3.4 -10.7 -1.4 -0.9 -3.7 -0.3 -9.2 2.4 -7.1 3.6 -7.6 4.5 -6.9 10.7 0.4 3.9 0.2 6.7 -0.8 9.1 l-1.5 3.5 -2 -4 c-1.1 -2.2 -3 -8.3 -4.2 -13.5 -1.3 -5.2 -3.2 -12.3 -4.2 -15.7 -1.2 -3.6 -1.9 -8.1 -1.7 -11 0.3 -4.6 0.4 -4.8 3.3 -4.8 2.9 0 3 0.2 5.1 8.5 1.2 4.6 2.7 8.6 3.4 8.8 1.4 0.5 15.3 -1.7 16.8 -2.7 0.7 -0.4 0.7 -2.4 0.1 -5.9 -1.4 -7.6 -0.8 -15.2 1.3 -16.6 3.7 -2.3 5.2 1.9 8.9 25.4 0.6 3.6 1.4 7.9 2 9.5 0.5 1.7 1.1 4.4 1.3 6 0.3 1.7 0.6 3.7 0.8 4.5 0.4 2.3 -2.4 16 -3.3 16 -0.5 0 -1.1 -1.7 -1.5 -3.7z"/>
  <path d="M42.6 71.6 c-1.3 -3.2 -1.6 -8.4 -1.7 -30.8 0 -19.5 0.3 -27.3 1.2 -28.4 1.4 -1.7 6 -1.9 7.6 -0.3 0.7 0.7 3.1 1.2 5.5 1.2 7.2 0 17.7 8.4 19.9 15.9 1.8 6.5 1.2 9.6 -2.9 14 -3.9 4.2 -5.5 4.6 -21.6 5.7 -0.5 0.1 -0.6 4.4 -0.2 10.2 0.7 9.6 0.6 10.1 -1.4 10.6 -1.1 0.3 -2.7 1.7 -3.4 3.1 l-1.4 2.6 -1.6 -3.8z m17.2 -31.2 c3.4 -0.4 6.2 -1.3 7 -2.2 3.7 -4.7 -1.8 -12 -10.7 -14.2 -6.6 -1.6 -7.1 -1 -7.1 7.8 0 7.1 1.3 10.7 3.7 9.8 0.8 -0.3 4 -0.9 7.1 -1.2z"/>
  <path d="M131.2 67.8 c-0.6 -1.3 -2 -7 -3.1 -12.8 -1.1 -5.8 -2.9 -13.9 -4 -18 -3.7 -13.6 -2.6 -20.1 3.1 -18.7 3.4 0.9 4.7 4.3 5.8 15.5 0.6 5.4 1.9 14.7 2.9 20.7 1.7 9.7 1.8 11.3 0.5 13.3 -0.8 1.2 -2 2.2 -2.8 2.2 -0.7 0 -1.8 -1 -2.4 -2.2z"/>
 </g>
</svg>